<svg id="Layer_1" data-name="Layer 1" xmlns="http://www.w3.org/2000/svg" viewBox="0 0 964.4 334.14"><path d="M400.21,130.29,410.7,68.52h15.81l12.53,33,13.27-33h16l9.34,61.77H461.57l-4.5-35.55h-.17l-14.83,35.55h-6.38L421.51,94.74h-.16l-5.16,35.55Zm122.07-10.73H500.16l-4.26,10.73h-17l23.75-61.77h17.54l23.26,61.77H526.29Zm-4.34-12.29-6.56-19.66h-.16l-6.64,19.66ZM580.36,105l19.42,25.31h-20l-15.16-23.76h-.16v23.76H548.41V68.52h24q9.68,0,15.57,4.75t5.9,14.26A18.83,18.83,0,0,1,590.32,99a15.23,15.23,0,0,1-10,6M564.47,80.81v15.4H566q11.15,0,11.14-7.7T566,80.81Zm55.7,49.48H604.11V68.52h16.06Zm10.49,0V68.52h16.06l29.41,37.77h.16V68.52h16.06v61.77H676.29L646.88,92.44h-.16v37.85ZM738,82.12H718.89V92.44H737V106H718.89v10.65H738v13.6H702.84V68.52H738ZM400.21,214.7l10.49-61.77h15.81L439,186l13.27-33h16l9.34,61.77H461.57l-4.5-35.56h-.17L442.07,214.7h-6.38l-14.18-35.56h-.16l-5.16,35.56Zm119.36-48.17H500.49v10.32h18.1v13.6h-18.1V201.1h19.08v13.6H484.43V152.93h35.14Zm39.65,13.68h31.87a73.94,73.94,0,0,1-1.35,13.6,28.62,28.62,0,0,1-5,10.81q-8.68,12.13-25.47,12.13-14.58,0-23.76-9.05t-9.18-23.56q0-15,9.26-24.12t24.25-9.14a31.68,31.68,0,0,1,16.79,4.34,28.53,28.53,0,0,1,11.06,12.95l-15.23,6.39a15.81,15.81,0,0,0-5.16-7.21,13.14,13.14,0,0,0-8.2-2.62,13.73,13.73,0,0,0-11.75,5.9,22.45,22.45,0,0,0-4.31,13.6,21.83,21.83,0,0,0,4.39,13.51,14.12,14.12,0,0,0,11.92,5.82,14,14,0,0,0,8.93-2.79,10.92,10.92,0,0,0,4-7.94H559.22ZM636.31,204H614.19l-4.26,10.73h-17l23.76-61.77h17.53l23.27,61.77H640.33ZM632,191.68,625.42,172h-.17l-6.63,19.66Zm65.95-25.15H678.5v10.32h17.62v13.6H678.5V214.7h-16V152.93h35.47ZM740.19,204H718.07l-4.26,10.73h-17l23.76-61.77h17.53l23.27,61.77H744.21Zm-4.34-12.29L729.3,172h-.17l-6.63,19.66Zm68-38.75h16v34.74a56.53,56.53,0,0,1-1.19,12.65,18.49,18.49,0,0,1-5.28,9.14q-7,6.89-20.48,6.88t-20.48-6.88a18.49,18.49,0,0,1-5.28-9.14A56.53,56.53,0,0,1,766,187.67V152.93h16v32.53c0,2,.05,3.6.13,4.91a23.79,23.79,0,0,0,.74,4.42,11,11,0,0,0,1.71,3.94,8.74,8.74,0,0,0,3.24,2.5,13.16,13.16,0,0,0,10.16,0,8.62,8.62,0,0,0,3.23-2.5,10.82,10.82,0,0,0,1.72-3.94,24.66,24.66,0,0,0,.74-4.42c.08-1.31.13-3,.13-4.91Zm26.21,61.77V152.93h16.06l29.41,37.77h.16V152.93h16.06V214.7H875.69l-29.41-37.85h-.16V214.7Zm110-10.73H918L913.7,214.7h-17l23.76-61.77H938l23.27,61.77H944.1Zm-4.35-12.29L929.19,172H929l-6.64,19.66ZM439.37,250.94H420v10.32h17.61v13.6H420v24.25H403.9V237.34h35.47Zm23.27-11.68a37.15,37.15,0,0,1,33.42,0,32.59,32.59,0,0,1,12.62,11.35,29.38,29.38,0,0,1,4.83,16.47q0,15-9.63,24.53t-24.53,9.55q-14.91,0-24.54-9.55t-9.62-24.53A29.38,29.38,0,0,1,450,250.61a32.52,32.52,0,0,1,12.62-11.35m29,16.51a17.81,17.81,0,0,0-24.58,0,15.29,15.29,0,0,0-5.16,11.39A18.23,18.23,0,0,0,467,280.31a17.13,17.13,0,0,0,24.74,0,18.23,18.23,0,0,0,5.08-13.15,15.29,15.29,0,0,0-5.16-11.39m66.85-18.43h16v34.73a57.22,57.22,0,0,1-1.18,12.66,18.51,18.51,0,0,1-5.29,9.14q-7,6.87-20.48,6.88t-20.48-6.88a18.49,18.49,0,0,1-5.28-9.14,56.56,56.56,0,0,1-1.19-12.66V237.34H536.7v32.52c0,2,0,3.6.12,4.92a24.66,24.66,0,0,0,.74,4.42,10.85,10.85,0,0,0,1.72,3.93,8.5,8.5,0,0,0,3.23,2.5,13.16,13.16,0,0,0,10.16,0,8.54,8.54,0,0,0,3.24-2.5,10.85,10.85,0,0,0,1.72-3.93,25.59,25.59,0,0,0,.74-4.42c.08-1.32.12-2.95.12-4.92Zm26.21,61.77V237.34h16.06l29.41,37.76h.17V237.34h16v61.77h-16l-29.41-37.85h-.17v37.85Zm72.18,0V237.34h22.77a30.67,30.67,0,0,1,22.17,9,30.68,30.68,0,0,1,0,43.83,30.67,30.67,0,0,1-22.17,9Zm16-48.17v34.57h3.61a18.85,18.85,0,0,0,12.74-4.34q5-4.35,5-12.95,0-8.1-4.84-12.7t-12.77-4.58Zm83.4,37.43H734.21L730,299.11h-17l23.75-61.77H754.2l23.27,61.77H760.35ZM752,276.09l-6.55-19.67h-.16l-6.64,19.67Zm50.14-25.15v48.17H786.07V250.94H772.8v-13.6h42.6v13.6Zm35.14,48.17h-16V237.34h16Zm24.83-59.85a37.15,37.15,0,0,1,33.42,0,32.59,32.59,0,0,1,12.62,11.35A29.38,29.38,0,0,1,913,267.08q0,15-9.62,24.53t-24.54,9.55q-14.91,0-24.54-9.55t-9.62-24.53a29.38,29.38,0,0,1,4.83-16.47,32.52,32.52,0,0,1,12.62-11.35m29,16.51a17.81,17.81,0,0,0-24.58,0,15.29,15.29,0,0,0-5.16,11.39,18.23,18.23,0,0,0,5.08,13.15,17.13,17.13,0,0,0,24.74,0,18.23,18.23,0,0,0,5.08-13.15,15.29,15.29,0,0,0-5.16-11.39m29.33,43.34V237.34h16.05l29.41,37.76h.17V237.34h16.06v61.77H966.06l-29.41-37.85h-.17v37.85Z" transform="translate(-17.71 -15.78)" style="fill:#017986"/><path d="M351.85,182.85A167.07,167.07,0,1,1,184.78,15.78,167.07,167.07,0,0,1,351.85,182.85" transform="translate(-17.71 -15.78)" style="fill:#017986"/><path d="M327.2,203.31c-6.41,6.48-28.52,12.68-29.73,16.36a118.54,118.54,0,0,1-205,37.58S75.11,262.92,75,280.7a1.78,1.78,0,0,1-3.3.9c-18.28-30.19,7.33-41.37-.55-64.84a118.88,118.88,0,0,1-2.47-58,35.81,35.81,0,0,1,4.41-11.92,10.74,10.74,0,0,1,5.7-4.55c4.32-1.47,9.26-3.07,20.06-3.59A113.73,113.73,0,0,1,120,139.91a11.33,11.33,0,0,1,8.11,5.32c4.92,8.16,11.86,21.61,14.24,43.08,2.36,21.19,30,3.78,41.67,33.37a2,2,0,0,1-2.47,2.68c-13.47-4.09-19.48-3.65-28.39,3.41,0,0,9.32,19.45,32.26,22.88s69.9-8.37,94.22-40.33c-19.32-45.59,15.13-110.8,7.61-75.67-5.07,23.66-.7,52.72,14.21,62s32.2.16,25.79,6.65m-83.07,16.55c4.47-2.73,7.82-7.16,10.33-14.15,2.16,2.6,4.78,4.64,6.43,3.49s2.64.4,3.59-1.06,1.53-1.09,2.48-1.69,2.11-1.17.1-5.39c-1.86-3.9-3.36-3.65-10.07-6.82a44.67,44.67,0,0,0-2.73-20.7,37.19,37.19,0,0,0-19.88-19.88c-2.08-1.69-4.32-3.43-5.3-4.86-3-4.31,17.4-3.54,20-4,4-.72-.95-10.12-11.84-11.15s-23.18,3.84-19.23,17.21a24.63,24.63,0,0,0-6.2.83l-4.59-5.27c.39-4.54-1.59-9-4.1-9.42-3.09-.56-10.69-4.57-13.45-2.88s-2.45,10.16-3.3,13.12c-.69,2.41,2.49,6.12,6.8,7.77l2.8,6.37a23.81,23.81,0,0,0-3.49,5.09c-10.48-9.37-20.39-.62-24.22,9.36s2.56,18.55,5,15.35c1.61-2.12,9.88-20.42,12.52-15.89.86,1.49,1.47,4.23,2.1,6.81a36.39,36.39,0,0,0,9.41,26.28A46.41,46.41,0,0,0,215,219.9c-.07,7.31-1,8.52,1.8,11.88,3,3.63,4,2.87,5,2.29s.89-1.26,2.65-1.45.64-1.68,2.54-2.69,1.08-4.16-.35-7.2c7.5.87,13-.14,17.49-2.87M82,130.42c6.52-3.74,19-10.38,36.93-8,23.75,3.22,32.91,19.16,40.83,23.26-.22.88-.43,1.76-.65,2.64-.29,1.25-.53,2.39-.8,3.7-.52,2.48-.93,5-1.31,7.41s-.7,4.85-1,7.17c-.57,4.66-1,9-1.37,12.74s-.62,6.83-.77,9-.24,3.43-.24,3.43a.29.29,0,0,0,.57.06s.21-1.23.59-3.37.93-5.21,1.59-8.89,1.51-8,2.47-12.5c.48-2.28,1-4.63,1.53-7s1.16-4.77,1.79-7.13c.31-1.12.73-2.38,1.1-3.52.35-1,.67-1.95,1-2.93,8.51-2.54,15.67-36.82,85.69-36.82a81.79,81.79,0,0,1,28.53,5.59,1.65,1.65,0,0,0,1.93-2.52A118.83,118.83,0,0,0,221.7,70.2a11.8,11.8,0,0,1-4.18-2.3,17.89,17.89,0,0,1-3.45-4.14,6.52,6.52,0,0,1-.9-3.08L213,56.29a5.14,5.14,0,0,0-2-3.89l-1.47-1.12c-2.28-1.72,3.71-15.35.66-17s-6.25,15.44-12.41,18.88l-.78.33c-4.16,1.8-8.59,1.89-13.05,1.92s-8.89-.12-13-1.92l-.78-.33c-6.16-3.44,3.33-16.27.73-18.88s-10.84,15-10.84,15A3.91,3.91,0,0,1,158.67,51l-1.8,1.37a5.15,5.15,0,0,0-2,3.89l-.18,4.39a6.37,6.37,0,0,1-.9,3.09,17.81,17.81,0,0,1-9.19,7.56,118.87,118.87,0,0,0-65,56.84A1.69,1.69,0,0,0,82,130.42M184.78,346.19c-90.07,0-163.34-73.27-163.34-163.34S94.71,19.51,184.78,19.51,348.12,92.79,348.12,182.85,274.85,346.19,184.78,346.19m0-321.84c-87.4,0-158.5,71.11-158.5,158.5s71.1,158.5,158.5,158.5,158.5-71.1,158.5-158.5-71.1-158.5-158.5-158.5" transform="translate(-17.71 -15.78)" style="fill:#fff"/></svg>